<svg id="Layer_1" data-name="Layer 1" xmlns="http://www.w3.org/2000/svg" viewBox="0 0 223.8 70.73"><defs><style>.cls-1{fill:#ff3838;}.cls-2{fill:#3d3b38;}</style></defs><polygon class="cls-1" points="64.57 0 16.6 7.79 7.34 42.52 64.57 0"/><polygon class="cls-2" points="5.18 50.52 0 70.06 61.98 24.92 33.23 29.68 5.18 50.52"/><path class="cls-2" d="M119.45,63.14a1.54,1.54,0,0,0-.72-.56,2.46,2.46,0,0,0-.94-.18,2.17,2.17,0,0,0-.57.07,1.43,1.43,0,0,0-.49.21,1.09,1.09,0,0,0-.36.38,1,1,0,0,0-.13.54.86.86,0,0,0,.33.73,3.58,3.58,0,0,0,.83.44c.33.12.69.24,1.09.35a4.79,4.79,0,0,1,1.08.48,2.64,2.64,0,0,1,.83.8,2.44,2.44,0,0,1,.33,1.34,2.84,2.84,0,0,1-.28,1.31,2.67,2.67,0,0,1-.75.94,3.39,3.39,0,0,1-1.11.55,4.73,4.73,0,0,1-1.32.19,5.1,5.1,0,0,1-1.7-.29,3.4,3.4,0,0,1-1.4-1l1.27-1.22a2,2,0,0,0,.81.72,2.31,2.31,0,0,0,1.06.26,2.39,2.39,0,0,0,.59-.08,1.7,1.7,0,0,0,.53-.24,1.24,1.24,0,0,0,.39-.4,1,1,0,0,0,.15-.56.94.94,0,0,0-.34-.79,2.65,2.65,0,0,0-.83-.47c-.33-.13-.69-.25-1.08-.37a4.36,4.36,0,0,1-1.08-.47,2.61,2.61,0,0,1-.83-.79,2.36,2.36,0,0,1-.33-1.33,2.39,2.39,0,0,1,.3-1.25,2.67,2.67,0,0,1,.79-.88,3.34,3.34,0,0,1,1.11-.52A4.66,4.66,0,0,1,118,60.9a4.77,4.77,0,0,1,1.45.22,3.44,3.44,0,0,1,1.26.74Z"/><polygon class="cls-2" points="125.89 62.64 122.99 62.64 122.99 61.13 130.48 61.13 130.48 62.64 127.58 62.64 127.58 70.49 125.89 70.49 125.89 62.64"/><path class="cls-2" d="M132.59,65.85a5.33,5.33,0,0,1,.38-2,4.49,4.49,0,0,1,1-1.57,4.64,4.64,0,0,1,1.57-1,5.71,5.71,0,0,1,2-.34,5.55,5.55,0,0,1,2,.32,4.38,4.38,0,0,1,2.63,2.54,5.33,5.33,0,0,1,.38,2,5.11,5.11,0,0,1-.38,2,4.5,4.5,0,0,1-1,1.55,4.85,4.85,0,0,1-1.59,1,5.77,5.77,0,0,1-2,.38,5.71,5.71,0,0,1-2-.35,4.64,4.64,0,0,1-1.57-1,4.42,4.42,0,0,1-1-1.53,5.17,5.17,0,0,1-.38-2m1.77-.11a4.14,4.14,0,0,0,.23,1.39,3.32,3.32,0,0,0,.67,1.1,3,3,0,0,0,1,.73,3.36,3.36,0,0,0,1.33.26A3.41,3.41,0,0,0,139,69a3.16,3.16,0,0,0,1-.73,3.47,3.47,0,0,0,.66-1.1,4.14,4.14,0,0,0,.23-1.39,3.7,3.7,0,0,0-.23-1.3,3.32,3.32,0,0,0-.66-1.07,3.11,3.11,0,0,0-1-.71,3.41,3.41,0,0,0-1.34-.26,3.36,3.36,0,0,0-1.33.26,3,3,0,0,0-1,.71,3.18,3.18,0,0,0-.67,1.07,3.7,3.7,0,0,0-.23,1.3"/><path class="cls-2" d="M145.72,61.13H149a6.29,6.29,0,0,1,1.32.13,3.4,3.4,0,0,1,1.13.43,2.22,2.22,0,0,1,.79.82,2.9,2.9,0,0,1-.27,3,2.43,2.43,0,0,1-1.63.83l2.51,4.14h-2l-2.19-4H147.4v4h-1.68Zm3,4a5.79,5.79,0,0,0,.72,0,2.28,2.28,0,0,0,.66-.15,1.18,1.18,0,0,0,.49-.39,1.16,1.16,0,0,0,.19-.72,1.12,1.12,0,0,0-.18-.66,1,1,0,0,0-.45-.38,2.35,2.35,0,0,0-.62-.16,5.07,5.07,0,0,0-.66,0H147.4V65.1Z"/><polygon class="cls-2" points="155.65 61.13 158.22 61.13 160.75 67.69 163.3 61.13 165.84 61.13 165.84 70.49 164.24 70.49 164.24 62.72 164.21 62.72 161.34 70.49 160.16 70.49 157.28 62.72 157.25 62.72 157.25 70.49 155.65 70.49 155.65 61.13"/><polygon class="cls-2" points="174.93 61.13 177.5 61.13 180.03 67.69 182.58 61.13 185.13 61.13 185.13 70.49 183.52 70.49 183.52 62.72 183.49 62.72 180.62 70.49 179.44 70.49 176.57 62.72 176.54 62.72 176.54 70.49 174.93 70.49 174.93 61.13"/><polygon class="cls-2" points="188.75 61.13 195.02 61.13 195.02 62.64 190.43 62.64 190.43 64.94 194.78 64.94 194.78 66.44 190.43 66.44 190.43 68.98 195.26 68.98 195.26 70.49 188.75 70.49 188.75 61.13"/><path class="cls-2" d="M198.39,61.13h3.73a5.77,5.77,0,0,1,1.81.29,4.27,4.27,0,0,1,1.53.86,4.22,4.22,0,0,1,1.08,1.46,5.09,5.09,0,0,1,.4,2.07,4.37,4.37,0,0,1-.47,2.08,4.24,4.24,0,0,1-1.19,1.45,4.91,4.91,0,0,1-1.61.86,5.78,5.78,0,0,1-1.75.29h-3.53ZM201.33,69a5.91,5.91,0,0,0,1.49-.18,3.64,3.64,0,0,0,1.23-.55,2.62,2.62,0,0,0,.82-1,3.25,3.25,0,0,0,.3-1.46,3.54,3.54,0,0,0-.27-1.45,2.49,2.49,0,0,0-.74-1,3.17,3.17,0,0,0-1.12-.55,5.38,5.38,0,0,0-1.43-.18h-1.53V69Z"/><rect class="cls-2" x="209.97" y="61.13" width="1.69" height="9.35"/><path class="cls-2" d="M218.26,61.13h1.46l4.08,9.36h-1.93L221,68.35h-4.1L216,70.49h-1.89Zm2.14,5.79L219,63.11l-1.49,3.81Z"/><path class="cls-2" d="M119.71,39.21A6.77,6.77,0,0,1,118.25,38l-.26-.32v.41c-.14,6.79-.7,7.13-.81,7.13-3,0-3-22.17-3-35.41V9.64h-30V23.47c0,7.66-.64,16.35-5.41,22.76l-.11.15.17.07a5.31,5.31,0,0,1,1.6,1.23l.13.17.12-.17c4-5.37,5.91-13.29,5.91-24.21V12h25.3l0,2.34c.2,19.39.35,33.4,5.13,33.4,2.09-.05,2.55-2.23,2.82-8.35v-.09Z"/><path class="cls-2" d="M105.62,36l-.07-.08-2.06.83.15.16a39.88,39.88,0,0,1,3.25,4L100,41.2V34.32h8.29v-12H100V17.71a1,1,0,0,0,.64-.37,73.94,73.94,0,0,0,8.06-1.74,1.27,1.27,0,0,0,.36,0,.72.72,0,0,0,.54-.17l.12-.12-2.25-1.83-.08,0c-4.65,1.47-13.3,2.77-19.84,3.5l-.22,0,.11.2A7.17,7.17,0,0,1,88,18.89l0,.14h.14c2.85-.28,6.11-.7,9.44-1.2v4.45h-8.2V34.32h8.2v7c-4.51.22-8.64.4-11.39.52H86l1,2.86.12,0a.81.81,0,0,0,.63-.58c5-.26,12.79-.77,20.32-1.34a21.18,21.18,0,0,1,1.78,3.44l0,.16,2.08-1,0-.13A31.12,31.12,0,0,0,105.62,36m-8-3.82h-6V24.41h6ZM100,24.41h6.1v7.72H100Z"/><path class="cls-2" d="M141.08,8.75a1,1,0,0,0,.95-.52l.06-.16-3-1,0,.14c-2.5,7.83-6.59,15.57-10.67,20.21l-.08.09.08.1c.35.48.91,1.4,1.17,1.87l.11.19.14-.17A52.1,52.1,0,0,0,135,22V47.74h2.41V18.34a.92.92,0,0,0,.78-.51l.06-.16-.82-.22a84,84,0,0,0,3.62-8.7"/><path class="cls-2" d="M147.11,37.82l-.09-.07L145.19,39l.15.13a39.85,39.85,0,0,1,5.94,5.93l.1.13,1.86-1.51-.09-.12a42.66,42.66,0,0,0-6-5.77"/><path class="cls-2" d="M163.57,32.46a.9.9,0,0,0,.69-.33l2.17-.09a24,24,0,0,1,2.09,2.1l.09.1,1.88-1.32-.12-.12a40.42,40.42,0,0,0-6.63-5.49h4V15.38H156.55V12.66h13.2V10.51h-13.2V8.17a.8.8,0,0,0,.75-.64l0-.16-3.19-.2v3.34H141.43v2.15h12.71v2.72H143.27V27.31h10.87v3.07c-4.8.08-9.45.13-13.09.13h-.2l.84,2.73.14,0a.91.91,0,0,0,.68-.52c5-.09,12-.27,18.7-.48v3.11H140.07v2.19h21.14v7.31c0,.68,0,.68-2.44.68-.88,0-2.05,0-3.41-.07l-1.3,0,.23.52a9.19,9.19,0,0,1,.6,1.65l0,.12H155c4.53,0,5.9,0,6.93-.32,1.35-.4,1.6-1.2,1.6-2.55V37.52h6.71V35.33h-6.71Zm-7-15.15h8.82v3.07h-8.82Zm0,5h8.82v3.12h-8.82Zm0,5h4.93l-.66.41.19.13c.81.56,2,1.41,3.25,2.37-2.54.07-5.11.11-7.61.15h-.1Zm-2.41-1.93h-8.55V22.26h8.55Zm0-5h-8.55V17.31h8.55Z"/><polygon class="cls-1" points="214.98 16.54 207.35 17.78 205.88 23.3 214.98 16.54"/><path class="cls-2" d="M223.59,44.08a34.47,34.47,0,0,1-10.22-9.49h10.08V32.35H211.57v-4a.82.82,0,0,0,.71-.46h6.44V14.15h4.86V11.87h-4.86v-4a.79.79,0,0,0,.74-.64l0-.16-3.14-.2v5H204.51v-4a.79.79,0,0,0,.74-.64l0-.16-3.09-.2v5h-5.13v2.28h5.13V27.88h7v4.47H197.58v2.24h9.69a33.43,33.43,0,0,1-10.57,9.75l-.19.1.16.15a9,9,0,0,1,1.5,1.72l.09.13.13-.08a39.75,39.75,0,0,0,10.77-10.72v12h2.41v-12a40.3,40.3,0,0,0,10.29,10.41l.12.08.09-.12a7.91,7.91,0,0,1,1.54-1.68l.19-.14Zm-7.24-18.39H204.51V14.15h11.84Z"/><path class="cls-2" d="M197.17,43.15l1.5-2-.07-.09a37.11,37.11,0,0,0-4.72-4.77c2.13-5,3.44-11.26,4-19.12a1.12,1.12,0,0,0,.22-.45l0-.14-1.41-.4-.4.09h-6.47c.68-3.22,1.25-6,1.69-8.3.48,0,.75-.21.81-.56l0-.15-3.11-.44-.07.4c-.52,2.75-1.1,5.86-1.77,9.05h-4.77v2.32h4.26c-1,4.61-2.38,10.92-3.59,15.24l0,.12,2.12,1.11.57-2.12c1.68,1.19,3.39,2.53,5,3.91a20.58,20.58,0,0,1-7.83,8.82l-.18.11.16.14a7,7,0,0,1,1.37,1.71l.08.14.14-.09a22.67,22.67,0,0,0,8.11-9.17A39.28,39.28,0,0,1,197,43ZM186.55,30.64c.91-3.65,1.9-7.92,2.8-12.06h6.07a54.27,54.27,0,0,1-3.49,16,60.24,60.24,0,0,0-5.38-4"/><polygon class="cls-2" points="81.47 62.4 78.57 62.4 78.57 60.9 86.06 60.9 86.06 62.4 83.16 62.4 83.16 70.25 81.47 70.25 81.47 62.4"/><polygon class="cls-2" points="98.58 60.9 104.85 60.9 104.85 62.4 100.27 62.4 100.27 64.7 104.61 64.7 104.61 66.21 100.27 66.21 100.27 68.75 105.09 68.75 105.09 70.25 98.58 70.25 98.58 60.9"/><polygon class="cls-2" points="94.17 60.81 94.17 64.63 89.35 64.63 89.35 60.81 87.73 60.81 87.73 70.29 89.35 70.29 89.35 66.08 94.17 66.08 94.17 70.29 95.8 70.29 95.8 60.81 94.17 60.81"/></svg>