<svg xmlns="http://www.w3.org/2000/svg" xmlns:xlink="http://www.w3.org/1999/xlink" viewBox="0 0 200 200"><defs><style>.cls-1{fill:url(#未命名漸層_10);}.cls-2{fill:url(#未命名漸層_10-2);}.cls-3{fill:url(#未命名漸層_10-3);}.cls-4{fill:url(#未命名漸層_10-4);}.cls-5{fill:url(#未命名漸層_10-5);}.cls-6{fill:url(#未命名漸層_10-6);}.cls-7{fill:url(#未命名漸層_10-7);}.cls-8{fill:url(#未命名漸層_10-8);}</style><linearGradient id="未命名漸層_10" x1="71.15" y1="17.47" x2="129.77" y2="17.47" gradientUnits="userSpaceOnUse"><stop offset="0" stop-color="#399bff"/><stop offset="1" stop-color="#ee71f9"/></linearGradient><linearGradient id="未命名漸層_10-2" x1="39.66" y1="105.01" x2="160.61" y2="105.01" xlink:href="#未命名漸層_10"/><linearGradient id="未命名漸層_10-3" x1="55.61" y1="68.26" x2="78.73" y2="68.26" xlink:href="#未命名漸層_10"/><linearGradient id="未命名漸層_10-4" x1="55.61" y1="107.01" x2="78.73" y2="107.01" xlink:href="#未命名漸層_10"/><linearGradient id="未命名漸層_10-5" x1="92.47" y1="68.26" x2="135.62" y2="68.26" xlink:href="#未命名漸層_10"/><linearGradient id="未命名漸層_10-6" x1="92.47" y1="109.26" x2="135.62" y2="109.26" xlink:href="#未命名漸層_10"/><linearGradient id="未命名漸層_10-7" x1="92.47" y1="150.26" x2="135.62" y2="150.26" xlink:href="#未命名漸層_10"/><linearGradient id="未命名漸層_10-8" x1="52.98" y1="146.72" x2="84.78" y2="146.72" xlink:href="#未命名漸層_10"/></defs><g id="txt"><path class="cls-1" d="M127.77,25.51a2,2,0,0,1-2-2V21.43a8,8,0,0,0-8-8H83.15a8,8,0,0,0-8,8v2.08a2,2,0,1,1-4,0V21.43a12,12,0,0,1,12-12h34.62a12,12,0,0,1,12,12v2.08A2,2,0,0,1,127.77,25.51Z"/><path class="cls-2" d="M148.61,188.51h-97a12,12,0,0,1-12-12v-143a12,12,0,0,1,12-12H73.15a2,2,0,0,1,2,2v2.08a8,8,0,0,0,8,8h34.62a8,8,0,0,0,8-8V23.51a2,2,0,0,1,2-2h20.84a12,12,0,0,1,12,12v143A12,12,0,0,1,148.61,188.51Zm-97-163a8,8,0,0,0-8,8v143a8,8,0,0,0,8,8h97a8,8,0,0,0,8-8v-143a8,8,0,0,0-8-8H129.77v.08a12,12,0,0,1-12,12H83.15a12,12,0,0,1-12-12v-.08Z"/><path class="cls-3" d="M71.23,79.82H63.11a7.5,7.5,0,0,1-7.5-7.5V64.2a7.51,7.51,0,0,1,7.5-7.5h8.12a7.52,7.52,0,0,1,7.5,7.5v8.12A7.51,7.51,0,0,1,71.23,79.82ZM63.11,59.7a4.51,4.51,0,0,0-4.5,4.5v8.12a4.5,4.5,0,0,0,4.5,4.5h8.12a4.5,4.5,0,0,0,4.5-4.5V64.2a4.51,4.51,0,0,0-4.5-4.5Z"/><path class="cls-4" d="M71.23,118.57H63.11a7.51,7.51,0,0,1-7.5-7.5V103a7.5,7.5,0,0,1,7.5-7.5h8.12a7.51,7.51,0,0,1,7.5,7.5v8.12A7.52,7.52,0,0,1,71.23,118.57ZM63.11,98.45a4.51,4.51,0,0,0-4.5,4.5v8.12a4.51,4.51,0,0,0,4.5,4.5h8.12a4.51,4.51,0,0,0,4.5-4.5V103a4.51,4.51,0,0,0-4.5-4.5Z"/><path class="cls-5" d="M134.12,69.76H94a1.5,1.5,0,0,1,0-3h40.15a1.5,1.5,0,0,1,0,3Z"/><path class="cls-6" d="M134.12,110.76H94a1.5,1.5,0,0,1,0-3h40.15a1.5,1.5,0,0,1,0,3Z"/><path class="cls-7" d="M134.12,151.76H94a1.5,1.5,0,0,1,0-3h40.15a1.5,1.5,0,0,1,0,3Z"/><path class="cls-8" d="M66.58,156.92a1.49,1.49,0,0,1-1.07-.45l-12.1-12.32a1.5,1.5,0,0,1,2.14-2.1l11,11.21L82.2,137a1.5,1.5,0,1,1,2.16,2.07l-16.7,17.41a1.5,1.5,0,0,1-1.07.46Z"/></g></svg>