<svg xmlns="http://www.w3.org/2000/svg" xmlns:xlink="http://www.w3.org/1999/xlink" viewBox="0 0 200 200"><defs><style>.cls-1{fill:url(#未命名漸層_10);}.cls-2{fill:url(#未命名漸層_10-2);}.cls-3{fill:url(#未命名漸層_10-3);}.cls-4{fill:url(#未命名漸層_10-4);}.cls-5{fill:url(#未命名漸層_10-5);}.cls-6{fill:url(#未命名漸層_10-6);}.cls-7{fill:url(#未命名漸層_10-7);}.cls-8{fill:url(#未命名漸層_10-8);}</style><linearGradient id="未命名漸層_10" x1="31.02" y1="89.8" x2="151.52" y2="89.8" gradientUnits="userSpaceOnUse"><stop offset="0" stop-color="#399bff"/><stop offset="1" stop-color="#ee71f9"/></linearGradient><linearGradient id="未命名漸層_10-2" x1="40.26" y1="100.23" x2="160.75" y2="100.23" xlink:href="#未命名漸層_10"/><linearGradient id="未命名漸層_10-3" x1="51.03" y1="112.03" x2="171.52" y2="112.03" xlink:href="#未命名漸層_10"/><linearGradient id="未命名漸層_10-4" x1="45.82" y1="55.24" x2="110.72" y2="55.24" xlink:href="#未命名漸層_10"/><linearGradient id="未命名漸層_10-5" x1="75.77" y1="95.37" x2="131.14" y2="95.37" xlink:href="#未命名漸層_10"/><linearGradient id="未命名漸層_10-6" x1="75.77" y1="109.46" x2="131.14" y2="109.46" xlink:href="#未命名漸層_10"/><linearGradient id="未命名漸層_10-7" x1="75.77" y1="123.56" x2="131.14" y2="123.56" xlink:href="#未命名漸層_10"/><linearGradient id="未命名漸層_10-8" x1="75.77" y1="137.66" x2="131.14" y2="137.66" xlink:href="#未命名漸層_10"/></defs><g id="txt"><path class="cls-1" d="M139.52,160.54H43a12,12,0,0,1-12-12V31.06a12,12,0,0,1,12-12h96.5a12,12,0,0,1,12,12V148.54A12,12,0,0,1,139.52,160.54ZM43,23.06a8,8,0,0,0-8,8V148.54a8,8,0,0,0,8,8h96.5a8,8,0,0,0,8-8V31.06a8,8,0,0,0-8-8Z"/><path class="cls-2" d="M148.75,171H52.26a12,12,0,0,1-12-12,2,2,0,0,1,4,0,8,8,0,0,0,8,8h96.49a8,8,0,0,0,8-8V41.49c0-3.85-2.19-8-7-8a2,2,0,1,1,0-4c6.38,0,11,5.05,11,12V159A12,12,0,0,1,148.75,171Z"/><path class="cls-3" d="M159.52,182.77H63a12,12,0,0,1-12-12,2,2,0,0,1,4,0,8,8,0,0,0,8,8h96.49a8,8,0,0,0,8-8V53.29c0-3.85-2.19-8-7-8a2,2,0,0,1,0-4c6.37,0,11,5.05,11,12V170.77A12,12,0,0,1,159.52,182.77Z"/><path class="cls-4" d="M103.22,78.78H53.32a7.52,7.52,0,0,1-7.5-7.5V39.21a7.51,7.51,0,0,1,7.5-7.5h49.9a7.51,7.51,0,0,1,7.5,7.5V71.28A7.52,7.52,0,0,1,103.22,78.78ZM53.32,34.71a4.51,4.51,0,0,0-4.5,4.5V71.28a4.51,4.51,0,0,0,4.5,4.5h49.9a4.51,4.51,0,0,0,4.5-4.5V39.21a4.51,4.51,0,0,0-4.5-4.5Z"/><path class="cls-5" d="M129.64,96.87H77.27a1.5,1.5,0,1,1,0-3h52.37a1.5,1.5,0,0,1,0,3Z"/><path class="cls-6" d="M129.64,111H77.27a1.5,1.5,0,0,1,0-3h52.37a1.5,1.5,0,0,1,0,3Z"/><path class="cls-7" d="M129.64,125.06H77.27a1.5,1.5,0,1,1,0-3h52.37a1.5,1.5,0,0,1,0,3Z"/><path class="cls-8" d="M129.64,139.16H77.27a1.5,1.5,0,0,1,0-3h52.37a1.5,1.5,0,0,1,0,3Z"/></g></svg>