<svg xmlns="http://www.w3.org/2000/svg" xmlns:xlink="http://www.w3.org/1999/xlink" viewBox="0 0 200 200"><defs><style>.cls-1{fill:url(#未命名漸層_10);}.cls-2{fill:url(#未命名漸層_10-2);}.cls-3{fill:url(#未命名漸層_10-3);}.cls-4{fill:url(#未命名漸層_10-4);}.cls-5{fill:url(#未命名漸層_10-5);}.cls-6{fill:url(#未命名漸層_10-6);}.cls-7{fill:url(#未命名漸層_10-7);}.cls-8{fill:url(#未命名漸層_10-8);}.cls-9{fill:url(#未命名漸層_10-9);}.cls-10{fill:url(#未命名漸層_10-10);}.cls-11{fill:url(#未命名漸層_10-11);}.cls-12{fill:url(#未命名漸層_10-12);}.cls-13{fill:url(#未命名漸層_10-13);}.cls-14{fill:url(#未命名漸層_10-14);}.cls-15{fill:url(#未命名漸層_10-15);}.cls-16{fill:url(#未命名漸層_10-16);}.cls-17{fill:url(#未命名漸層_10-17);}.cls-18{fill:url(#未命名漸層_10-18);}.cls-19{fill:url(#未命名漸層_10-19);}</style><linearGradient id="未命名漸層_10" x1="6.83" y1="109.59" x2="193.55" y2="109.59" gradientUnits="userSpaceOnUse"><stop offset="0" stop-color="#399bff"/><stop offset="1" stop-color="#ee71f9"/></linearGradient><linearGradient id="未命名漸層_10-2" x1="78" y1="106.82" x2="122.4" y2="106.82" xlink:href="#未命名漸層_10"/><linearGradient id="未命名漸層_10-3" x1="61.3" y1="143.1" x2="89.64" y2="143.1" xlink:href="#未命名漸層_10"/><linearGradient id="未命名漸層_10-4" x1="110.99" y1="143.15" x2="139.31" y2="143.15" xlink:href="#未命名漸層_10"/><linearGradient id="未命名漸層_10-5" x1="23.18" y1="96.61" x2="67.58" y2="96.61" xlink:href="#未命名漸層_10"/><linearGradient id="未命名漸層_10-6" x1="7.99" y1="129.18" x2="34.31" y2="129.18" xlink:href="#未命名漸層_10"/><linearGradient id="未命名漸層_10-7" x1="56.16" y1="121.82" x2="78.23" y2="121.82" xlink:href="#未命名漸層_10"/><linearGradient id="未命名漸層_10-8" x1="132.89" y1="96.61" x2="177.61" y2="96.61" xlink:href="#未命名漸層_10"/><linearGradient id="未命名漸層_10-9" x1="166" y1="129.18" x2="192.32" y2="129.18" xlink:href="#未命名漸層_10"/><linearGradient id="未命名漸層_10-10" x1="122.17" y1="121.82" x2="144.39" y2="121.82" xlink:href="#未命名漸層_10"/><linearGradient id="未命名漸層_10-11" x1="29.37" y1="64.15" x2="34.64" y2="64.15" xlink:href="#未命名漸層_10"/><linearGradient id="未命名漸層_10-12" x1="41.43" y1="64.15" x2="46.69" y2="64.15" xlink:href="#未命名漸層_10"/><linearGradient id="未命名漸層_10-13" x1="53.48" y1="64.15" x2="58.74" y2="64.15" xlink:href="#未命名漸層_10"/><linearGradient id="未命名漸層_10-14" x1="84.46" y1="73.06" x2="89.72" y2="73.06" xlink:href="#未命名漸層_10"/><linearGradient id="未命名漸層_10-15" x1="96.51" y1="73.06" x2="101.77" y2="73.06" xlink:href="#未命名漸層_10"/><linearGradient id="未命名漸層_10-16" x1="108.56" y1="73.06" x2="113.82" y2="73.06" xlink:href="#未命名漸層_10"/><linearGradient id="未命名漸層_10-17" x1="139.11" y1="64.15" x2="144.38" y2="64.15" xlink:href="#未命名漸層_10"/><linearGradient id="未命名漸層_10-18" x1="151.17" y1="64.15" x2="156.43" y2="64.15" xlink:href="#未命名漸層_10"/><linearGradient id="未命名漸層_10-19" x1="163.22" y1="64.15" x2="168.48" y2="64.15" xlink:href="#未命名漸層_10"/></defs><g id="txt"><path class="cls-1" d="M24.68,188.52a55.25,55.25,0,0,1-7.3-.43,2,2,0,0,1,.13-4c10.76-.8,15.23-11,17.06-18.41H13.94a7.12,7.12,0,0,1-7.11-7.11V37.77a7.12,7.12,0,0,1,7.11-7.11H186.45a7.12,7.12,0,0,1,7.1,7.11V158.6a7.12,7.12,0,0,1-7.1,7.11H60.18a24.58,24.58,0,0,1-9.37,15.55C42.8,187.36,31.84,188.52,24.68,188.52ZM13.94,34.66a3.11,3.11,0,0,0-3.11,3.11V158.6a3.12,3.12,0,0,0,3.11,3.11H37.06a2,2,0,0,1,2,2.38c-1,5-3.74,14.9-11.07,20.32,6.35-.34,14.48-1.78,20.44-6.34a21,21,0,0,0,8.09-14.62,2,2,0,0,1,2-1.74h128a3.11,3.11,0,0,0,3.1-3.11V37.77a3.1,3.1,0,0,0-3.1-3.11Z"/><path class="cls-2" d="M100.2,129a22.2,22.2,0,1,1,22.2-22.2A22.23,22.23,0,0,1,100.2,129Zm0-40.4a18.2,18.2,0,1,0,18.2,18.2A18.22,18.22,0,0,0,100.2,88.62Z"/><path class="cls-3" d="M63.3,165.71h-.15a2,2,0,0,1-1.84-2.15c1.5-19.37,11.5-36.2,25.46-42.87a2,2,0,0,1,2.67.95,2,2,0,0,1-.94,2.66c-12.7,6.07-21.81,21.6-23.2,39.57A2,2,0,0,1,63.3,165.71Z"/><path class="cls-4" d="M137.29,165.71a2,2,0,0,1-2-1.85c-1.39-17.85-10.48-33.34-23.16-39.47a2,2,0,0,1-.93-2.67,2,2,0,0,1,2.7-.93c13.93,6.74,23.91,23.53,25.41,42.76a2,2,0,0,1-1.85,2.15Z"/><path class="cls-5" d="M45.38,118.81a22.2,22.2,0,1,1,22.2-22.2A22.23,22.23,0,0,1,45.38,118.81Zm0-40.4a18.2,18.2,0,1,0,18.2,18.2A18.21,18.21,0,0,0,45.38,78.41Z"/><path class="cls-6" d="M9.49,147.58l-.29,0A1.5,1.5,0,0,1,8,145.79c3.19-16.13,12.22-29.17,24.15-34.86a1.5,1.5,0,1,1,1.29,2.7C22.38,118.92,14,131.16,11,146.37A1.5,1.5,0,0,1,9.49,147.58Z"/><path class="cls-7" d="M76.23,133.25a2,2,0,0,1-1.79-1.1c-4.15-8.22-10.24-14.6-17.15-18a2,2,0,0,1,1.75-3.6c7.69,3.75,14.43,10.77,19,19.77a2,2,0,0,1-.88,2.69A2,2,0,0,1,76.23,133.25Z"/><path class="cls-8" d="M155.25,118.81a22.2,22.2,0,1,1,22.36-22.2A22.31,22.31,0,0,1,155.25,118.81Zm0-40.4a18.2,18.2,0,1,0,18.33,18.2A18.29,18.29,0,0,0,155.25,78.41Z"/><path class="cls-9" d="M190.82,147.58a1.5,1.5,0,0,1-1.47-1.21c-3-15.21-11.41-27.45-22.49-32.74a1.5,1.5,0,1,1,1.29-2.7c11.93,5.69,20.95,18.73,24.14,34.86a1.49,1.49,0,0,1-1.18,1.76A1.36,1.36,0,0,1,190.82,147.58Z"/><path class="cls-10" d="M124.18,133.25a2,2,0,0,1-.91-.21,2,2,0,0,1-.89-2.69c4.58-9,11.36-16,19.11-19.77a2,2,0,0,1,2.7.93,2,2,0,0,1-.93,2.67c-7,3.37-13.1,9.75-17.28,18A2,2,0,0,1,124.18,133.25Z"/><circle class="cls-11" cx="32.01" cy="64.15" r="2.63"/><circle class="cls-12" cx="44.06" cy="64.15" r="2.63"/><circle class="cls-13" cx="56.11" cy="64.15" r="2.63"/><circle class="cls-14" cx="87.09" cy="73.06" r="2.63"/><circle class="cls-15" cx="99.14" cy="73.06" r="2.63"/><circle class="cls-16" cx="111.19" cy="73.06" r="2.63"/><circle class="cls-17" cx="141.75" cy="64.15" r="2.63"/><circle class="cls-18" cx="153.8" cy="64.15" r="2.63"/><circle class="cls-19" cx="165.85" cy="64.15" r="2.63"/></g></svg>