<svg id="Layer_1" data-name="Layer 1" xmlns="http://www.w3.org/2000/svg" viewBox="0 0 317.35 26.78"><defs><style>.cls-1{fill:#3d3b38;}</style></defs><title>slogan_en</title><path class="cls-1" d="M136.13,9.32a1.82,1.82,0,1,1-1.82,1.82A1.82,1.82,0,0,1,136.13,9.32Z"/><path class="cls-1" d="M0,18.43l2.23-2.67A7.62,7.62,0,0,0,7.15,17.9c2,0,3.09-.86,3.09-2.23S9.06,13.8,7.33,13.06L4.74,12C2.77,11.15.81,9.58.81,6.75c0-3.17,2.77-5.6,6.7-5.6a8.61,8.61,0,0,1,6.07,2.49l-2,2.43a6.18,6.18,0,0,0-4.11-1.6c-1.7,0-2.8.76-2.8,2s1.39,1.88,3,2.54l2.54,1.07c2.36,1,3.9,2.46,3.9,5.26,0,3.17-2.64,5.86-7.12,5.86A10.32,10.32,0,0,1,0,18.43Z"/><path class="cls-1" d="M17.17,15.76V9.26H15.1V6.41l2.25-.18L17.8,2.3H21V6.23h3.61v3H21v6.49c0,1.68.68,2.46,2,2.46a4.29,4.29,0,0,0,1.44-.32l.63,2.8a9.52,9.52,0,0,1-3.09.55C18.5,21.25,17.17,19.06,17.17,15.76Z"/><path class="cls-1" d="M26.41,16.91c0-3.14,2.54-4.79,8.43-5.42C34.78,10.05,34.15,9,32.35,9a8.28,8.28,0,0,0-4,1.38L26.93,7.8a11.7,11.7,0,0,1,6.12-1.94c3.72,0,5.63,2.23,5.63,6.46v8.56H35.54l-.29-1.57h-.08a6.89,6.89,0,0,1-4.42,1.94A4.16,4.16,0,0,1,26.41,16.91Zm8.43-.1v-3c-3.56.47-4.77,1.44-4.77,2.75,0,1.15.81,1.65,1.94,1.65A3.88,3.88,0,0,0,34.83,16.8Z"/><path class="cls-1" d="M42,26.49l.71-3a3.93,3.93,0,0,0,1,.18,2.81,2.81,0,0,0,2.75-2.22l.26-.86L41,6.23h3.88L47.24,13c.45,1.31.81,2.72,1.23,4.14h.13c.34-1.36.71-2.78,1-4.14l2-6.8h3.69l-5.21,15.1c-1.28,3.45-2.85,5.45-6.12,5.45A6.26,6.26,0,0,1,42,26.49Z"/><path class="cls-1" d="M68.12,4.74H62.67V1.52H77.49V4.74H72V20.89H68.12Z"/><path class="cls-1" d="M79.16,6.23H82.3l.26,2.59h.1c1.07-1.91,2.64-3,4.16-3a4.14,4.14,0,0,1,1.73.31L87.88,9.5a4.6,4.6,0,0,0-1.52-.24c-1.15,0-2.54.76-3.38,2.88v8.74H79.16Z"/><path class="cls-1" d="M90.55,15.39V6.23h3.85v8.66c0,2.28.63,3.06,2,3.06,1.2,0,2-.52,3-1.83V6.23h3.85V20.89h-3.14l-.29-2.09h-.1A5.89,5.89,0,0,1,95,21.25C91.9,21.25,90.55,19.06,90.55,15.39Z"/><path class="cls-1" d="M106.58,13.59c0-4.76,3.32-7.72,6.83-7.72,4,0,6.12,3,6.12,7a7.16,7.16,0,0,1-.18,1.75h-9a3.85,3.85,0,0,0,4.06,3.66,6,6,0,0,0,3.3-1L119,19.63a9.25,9.25,0,0,1-5.13,1.62C109.78,21.25,106.58,18.4,106.58,13.59Zm9.66-1.49c0-2-.89-3.25-2.77-3.25-1.55,0-2.91,1.1-3.19,3.25Z"/><path class="cls-1" d="M153.5,1.52h3.87V17.64h7.85v3.24H153.5Z"/><path class="cls-1" d="M167.11,13.59c0-4.9,3.38-7.72,7-7.72s7,2.83,7,7.72-3.38,7.67-7,7.67S167.11,18.43,167.11,13.59Zm10.16,0c0-2.78-1.12-4.58-3.12-4.58S171,10.81,171,13.59s1.13,4.53,3.12,4.53S177.27,16.33,177.27,13.59Z"/><path class="cls-1" d="M183.62,13.59c0-4.9,3.38-7.72,7-7.72s7,2.83,7,7.72-3.38,7.67-7,7.67S183.62,18.43,183.62,13.59Zm10.15,0c0-2.78-1.12-4.58-3.12-4.58s-3.11,1.8-3.11,4.58,1.12,4.53,3.11,4.53S193.78,16.33,193.78,13.59Z"/><path class="cls-1" d="M201.05,0h3.74V12.56h.1L210,6.23h4.19l-5.08,6,5.55,8.66h-4.16l-3.56-6.07-2.12,2.41v3.66h-3.74Z"/><path class="cls-1" d="M223.4,1.52h6.41c4,0,7,1.15,7,4.76a4.4,4.4,0,0,1-2.64,4.19v.13a4.4,4.4,0,0,1,3.64,4.58c0,3.9-3.25,5.71-7.51,5.71H223.4Zm6.12,7.88c2.46,0,3.53-1,3.53-2.54,0-1.7-1.15-2.38-3.48-2.38h-2.3V9.4ZM230,17.9c2.64,0,4.08-.94,4.08-3s-1.41-2.67-4.08-2.67h-2.7V17.9Z"/><path class="cls-1" d="M240.12,13.59c0-4.76,3.32-7.72,6.83-7.72,4,0,6.12,3,6.12,7a7.13,7.13,0,0,1-.18,1.75h-9a3.85,3.85,0,0,0,4.06,3.66,6,6,0,0,0,3.3-1l1.31,2.36a9.25,9.25,0,0,1-5.13,1.62C243.31,21.25,240.12,18.4,240.12,13.59Zm9.66-1.49c0-2-.89-3.25-2.77-3.25-1.54,0-2.91,1.1-3.19,3.25Z"/><path class="cls-1" d="M255.54,26.49l.71-3a3.91,3.91,0,0,0,1,.18A2.8,2.8,0,0,0,260,21.49l.26-.86L254.57,6.23h3.87l2.33,6.8c.44,1.31.81,2.72,1.23,4.14h.13c.34-1.36.71-2.78,1-4.14l2-6.8h3.69l-5.21,15.1c-1.28,3.45-2.85,5.45-6.12,5.45A6.25,6.25,0,0,1,255.54,26.49Z"/><path class="cls-1" d="M270.3,13.59c0-4.9,3.38-7.72,7-7.72s7,2.83,7,7.72-3.38,7.67-7,7.67S270.3,18.43,270.3,13.59Zm10.15,0c0-2.78-1.13-4.58-3.12-4.58s-3.11,1.8-3.11,4.58,1.12,4.53,3.11,4.53S280.45,16.33,280.45,13.59Z"/><path class="cls-1" d="M287.72,6.23h3.14l.26,1.94h.1A6.75,6.75,0,0,1,296,5.86c3.17,0,4.53,2.2,4.53,5.89v9.13h-3.85V12.22c0-2.25-.63-3.06-2.07-3.06-1.2,0-2,.58-3.06,1.65V20.89h-3.82Z"/><path class="cls-1" d="M303.79,13.59c0-4.79,3-7.72,6.15-7.72a5,5,0,0,1,3.72,1.6l-.16-2.3V0h3.85V20.89h-3.12l-.31-1.52h-.08a6.07,6.07,0,0,1-4.06,1.88C306.15,21.25,303.79,18.37,303.79,13.59Zm9.71,3V10.13A3.9,3.9,0,0,0,310.78,9c-1.65,0-3,1.57-3,4.5s1.1,4.55,3,4.55A3.26,3.26,0,0,0,313.5,16.57Z"/></svg>