<svg id="Layer_1" data-name="Layer 1" xmlns="http://www.w3.org/2000/svg" viewBox="0 0 408.5 29.93"><defs><style>.cls-1{fill:#3d3b38;}</style></defs><title>slogan_ch</title><path class="cls-1" d="M0,26.36a33.1,33.1,0,0,0,3.51-7.83l2.64,1A45.93,45.93,0,0,1,2.8,27.62ZM13.25,14.5H2.93V4H13.25V.22h3V4H26.78V14.5H16.24v2.9H15a38.58,38.58,0,0,1,4.19,3.9l-2.38,1.87A38.61,38.61,0,0,0,12,18.53l1.55-1.13h-.32Zm0-2.67V6.61H5.83v5.22ZM18.5,26.29c1.52,0,1.77-.55,1.94-4a9.87,9.87,0,0,0,2.83,1.16C22.88,28,22,29.1,18.76,29.1H12.66c-3.84,0-4.83-.87-4.83-3.93V18.53H11v6.6c0,1,.29,1.16,2,1.16ZM16.24,6.61v5.22h7.54V6.61Zm8.28,11.7a75.49,75.49,0,0,1,4.87,7.28L26.62,27.1a66.71,66.71,0,0,0-4.67-7.5Z"/><path class="cls-1" d="M59.88,12.18s0,.87,0,1.22c-.29,9.92-.61,13.44-1.45,14.56a2.67,2.67,0,0,1-2,1.16,17.73,17.73,0,0,1-3.06.09,7.39,7.39,0,0,0-.74-2.71c1,.07,1.87.1,2.35.1a1,1,0,0,0,.93-.45c.52-.71.77-3.55,1.06-11.28H53.38C53,21.11,52,26.23,49.22,29.71A9.54,9.54,0,0,0,47,27.49c3.29-4.06,3.55-10.93,3.64-19.37h-2.9V5.35h6.09a19.59,19.59,0,0,0-2.38-4.22L54.15.06a20.26,20.26,0,0,1,2.61,4.42l-2.19.87h6.32V8.12H53.6c0,1.39-.07,2.77-.1,4.06ZM70.39.87c-.19.64-.39,1.32-.64,2a21.15,21.15,0,0,0,7.57,8.35,12.94,12.94,0,0,0-2.19,2.42,23.37,23.37,0,0,1-6.67-7.83,22.21,22.21,0,0,1-6.77,8.09,9.77,9.77,0,0,0-2.09-2.42,19.59,19.59,0,0,0,8-11.38ZM64.75,21.2a54.32,54.32,0,0,1,8.93,5.51l-2,2.58a50.32,50.32,0,0,0-8.86-5.83ZM70.36,19a38.45,38.45,0,0,0-5.51-4.58l2-1.9a41.91,41.91,0,0,1,5.61,4.25Z"/><path class="cls-1" d="M106.91,25.81a38.62,38.62,0,0,1-9.64,4,25.64,25.64,0,0,0-2.06-2.06,35.8,35.8,0,0,0,9.15-3.64Zm16.76-2H95.31V21.3h4.41V7h7.67c.1-.55.19-1.13.32-1.74H96.15V2.71h11.92c.13-.87.19-1.77.26-2.51l3.16.29q-.19,1.11-.39,2.22h11.76V5.25H110.65c-.13.61-.26,1.19-.32,1.74h9V21.3h4.35ZM102.59,9v1.77h13.73V9Zm13.73,3.61H102.59v1.55h13.73ZM102.59,16v1.61h13.73V16Zm0,5.35h13.73V19.4H102.59ZM114,23.94a68.88,68.88,0,0,1,9.89,3.77l-2.42,2a58.48,58.48,0,0,0-9.35-3.84Z"/><path class="cls-1" d="M171.34,9.18v2.19H165.8l-.26,2.71H147.1l.35-2.71h-5.09V9.18h5.38l.33-2.58h18.17L166,9.18Zm-9.86,16.24c3.29.84,6.64,1.87,8.83,2.61l-2,1.9c-2.26-.87-6.06-2.13-9.73-3.13l1.26-1.38h-6.54l1.9,1.29a37.16,37.16,0,0,1-10.63,3.19,21.2,21.2,0,0,0-1.61-2.06,40.14,40.14,0,0,0,9.22-2.42h-5.51V15.24h20.56V25.43ZM146.07,8.25h-2.71V2.93h12.05A23.06,23.06,0,0,0,154.23.74L156.8,0a14.38,14.38,0,0,1,1.74,2.93h11.76V8.25h-2.84V5.32h-21.4Zm3.45,9.86h14.63V16.88H149.52Zm0,2.8h14.63V19.66H149.52Zm0,2.87h14.63V22.49H149.52ZM150,12.47h5.25c.07-.45.13-.9.16-1.39h-5.25Zm.55-4.22-.16,1.22h5.22l.09-1.22ZM163,12.47l.13-1.39H157.9c-.07.48-.13.94-.16,1.39Zm.35-4.22h-5.12l-.13,1.22h5.16Z"/><path class="cls-1" d="M204.15,12.7A2.32,2.32,0,1,1,201.83,15,2.31,2.31,0,0,1,204.15,12.7Z"/><path class="cls-1" d="M248.05,12.5c-.35.64-.68,1.26-1.06,1.87h15.53V29.91h-3V28.68H246.63v1.23h-2.87V18.59a23.76,23.76,0,0,1-5.42,4.32,11.93,11.93,0,0,0-1.83-2.35,22.34,22.34,0,0,0,8.12-8.05h-7.25V10.12h8.54c.32-.61.61-1.29.9-1.93h-7.15V5.83h8c.23-.61.39-1.22.55-1.84-2.84.1-5.67.16-8.35.16a7,7,0,0,0-.58-2.29c7.8,0,17.3-.48,22.52-1.45l1.81,2.16A111.33,111.33,0,0,1,251.5,3.83c-.19.68-.42,1.32-.64,2h13V8.18H250c-.26.64-.55,1.32-.84,1.93h16.4V12.5Zm11.47,4.19H246.63v1.84h12.89Zm-12.89,5.67h12.89V20.53H246.63Zm12.89,4v-2H246.63v2Z"/><path class="cls-1" d="M309.36,26.68c1.26,0,1.45-.51,1.58-4.41a8.44,8.44,0,0,0,2.8,1.23c-.35,4.83-1.19,6-4.09,6h-4.77c-3.39,0-4.22-.9-4.22-3.93V19.75H296c-.74,5.12-2.74,8.41-10.28,10.12A9.3,9.3,0,0,0,284,27.23c6.61-1.29,8.18-3.64,8.8-7.48h-4.16V1.29h20.49V19.75h-5.45v5.83c0,1,.22,1.09,1.52,1.09Zm-17.79-20h14.57V4H291.57Zm0,5.19h14.57V9.12H291.57Zm0,5.25h14.57V14.34H291.57Z"/><path class="cls-1" d="M349.29,16.11a31.29,31.29,0,0,0,11.89,9.51A16.7,16.7,0,0,0,359,28.2a34.65,34.65,0,0,1-11.25-9.67V29.78h-3.16V18.66a35.07,35.07,0,0,1-11.22,9.51,20.34,20.34,0,0,0-2.19-2.54A31.17,31.17,0,0,0,343,16.11H332.12v-3h12.47V8.25H334.44v-3h10.15V.22h3.16V5.28h10.41v3H347.75v4.9h12.66v3Z"/><path class="cls-1" d="M405.57,18.75a56.16,56.16,0,0,0-4.64-4.19,15.09,15.09,0,0,1-2.51,3.32A15.57,15.57,0,0,0,396,16.37a28.52,28.52,0,0,0,12.5,9.41,12.07,12.07,0,0,0-2.26,2.71,30.8,30.8,0,0,1-11.21-9V29.78h-3.16V19.62a32.18,32.18,0,0,1-11.12,8.83,13.38,13.38,0,0,0-2.12-2.54A29.71,29.71,0,0,0,391.87,15V7.38h-12V4.48h12V.22H395V4.48h12.41v2.9H395v7.51c.29.48.58.94.9,1.39a15.07,15.07,0,0,0,4.41-8.35l2.9.52a21.26,21.26,0,0,1-1.13,3.61,68.17,68.17,0,0,1,5.58,4.64ZM388.17,8.47A25.11,25.11,0,0,1,387,12.12a43.74,43.74,0,0,1,3.42,3.19l-2,2.12a28.46,28.46,0,0,0-2.64-2.74,16.87,16.87,0,0,1-3.9,4.77,15.15,15.15,0,0,0-2.32-2,16.24,16.24,0,0,0,5.77-9.57Z"/></svg>